<svg width="505" height="238" viewBox="0 0 505 238" fill="none" xmlns="http://www.w3.org/2000/svg">
<path d="M278.812 111.22L246.453 1.50006H279.669L294.67 69.0034H295.527L313.314 1.50006H339.458L357.244 69.2177H358.102L373.102 1.50006H406.318L373.959 111.22H345.458L326.814 49.931H325.957L307.313 111.22H278.812Z" fill="white"/>
<path d="M234.153 1.5715L234.153 237.298H212.152L212.152 1.5715H234.153Z" fill="white"/>
<path d="M165.717 35.7875C165.431 32.2159 164.092 29.43 161.699 27.4299C159.341 25.4298 155.752 24.4298 150.93 24.4298C147.859 24.4298 145.341 24.8048 143.376 25.5548C141.448 26.2692 140.019 27.2514 139.09 28.5014C138.162 29.7515 137.68 31.1801 137.644 32.7873C137.573 34.1088 137.805 35.3053 138.34 36.3768C138.912 37.4126 139.805 38.3591 141.019 39.2162C142.234 40.0377 143.787 40.7877 145.68 41.4664C147.573 42.145 149.823 42.7521 152.43 43.2879L161.431 45.2165C167.503 46.5023 172.699 48.1988 177.021 50.3061C181.343 52.4133 184.878 54.8956 187.629 57.7529C190.379 60.5744 192.397 63.7532 193.682 67.2891C195.004 70.825 195.683 74.6823 195.718 78.8611C195.683 86.0757 193.879 92.1832 190.307 97.1834C186.736 102.184 181.628 105.987 174.985 108.595C168.378 111.202 160.431 112.506 151.145 112.506C141.608 112.506 133.287 111.095 126.179 108.273C119.107 105.452 113.607 101.112 109.678 95.2547C105.785 89.3616 103.821 81.8255 103.785 72.6465H132.072C132.251 76.0038 133.09 78.8254 134.59 81.1112C136.09 83.397 138.198 85.1292 140.912 86.3079C143.662 87.4865 146.93 88.0758 150.716 88.0758C153.895 88.0758 156.556 87.6829 158.699 86.8972C160.842 86.1114 162.467 85.0221 163.574 83.6292C164.681 82.2362 165.253 80.6469 165.288 78.8611C165.253 77.1824 164.699 75.718 163.627 74.468C162.592 73.1822 160.877 72.0393 158.484 71.0392C156.091 70.0035 152.859 69.0392 148.787 68.1463L137.858 65.789C128.144 63.6817 120.482 60.1637 114.875 55.2349C109.303 50.2704 106.535 43.5022 106.571 34.9303C106.535 27.9657 108.393 21.8761 112.143 16.6615C115.929 11.4113 121.161 7.32179 127.84 4.39307C134.555 1.46436 142.251 0 150.93 0C159.788 0 167.449 1.48222 173.914 4.44665C180.378 7.41108 185.361 11.5899 188.861 16.983C192.397 22.3404 194.183 28.6086 194.218 35.7875H165.717Z" fill="white"/>
<path d="M0 25.5012V1.50005H95.3619V25.5012H62.3603V111.22H33.0016V25.5012H0Z" fill="white"/>
<g filter="url(#filter0_i_525_321)">
<path d="M495.023 237.298C492.419 237.298 490.185 236.382 488.322 234.55C486.481 232.696 485.572 230.446 485.594 227.801C485.572 225.223 486.481 223.018 488.322 221.187C490.185 219.355 492.419 218.439 495.023 218.439C497.492 218.439 499.67 219.355 501.556 221.187C503.464 223.018 504.429 225.223 504.452 227.801C504.429 229.564 503.969 231.17 503.071 232.617C502.196 234.041 501.051 235.183 499.636 236.043C498.222 236.879 496.684 237.298 495.023 237.298Z" fill="white"/>
</g>
<path d="M393.916 235.44V125.721H409.935V166.49H410.899C411.828 164.776 413.167 162.794 414.917 160.544C416.667 158.294 419.096 156.329 422.203 154.651C425.31 152.936 429.418 152.079 434.525 152.079C441.168 152.079 447.097 153.758 452.312 157.115C457.526 160.472 461.616 165.312 464.58 171.634C467.58 177.955 469.08 185.563 469.08 194.456C469.08 203.349 467.598 210.975 464.634 217.332C461.669 223.654 457.598 228.529 452.419 231.958C447.24 235.351 441.329 237.048 434.686 237.048C429.686 237.048 425.596 236.208 422.417 234.53C419.274 232.851 416.81 230.886 415.024 228.636C413.238 226.386 411.863 224.386 410.899 222.636H409.56V235.44H393.916ZM409.613 194.295C409.613 200.081 410.453 205.153 412.131 209.51C413.81 213.868 416.239 217.279 419.417 219.743C422.596 222.172 426.489 223.386 431.096 223.386C435.882 223.386 439.883 222.118 443.097 219.582C446.311 217.011 448.74 213.528 450.383 209.135C452.062 204.742 452.901 199.796 452.901 194.295C452.901 188.867 452.08 183.991 450.437 179.67C448.829 175.348 446.401 171.937 443.151 169.437C439.936 166.937 435.918 165.687 431.096 165.687C426.453 165.687 422.525 166.883 419.31 169.276C416.131 171.669 413.721 175.009 412.078 179.295C410.435 183.581 409.613 188.581 409.613 194.295Z" fill="white"/>
<path d="M355.034 201.314V153.15H371.106V235.44H355.355V221.19H354.498C352.605 225.583 349.569 229.244 345.391 232.172C341.247 235.065 336.086 236.512 329.908 236.512C324.622 236.512 319.943 235.351 315.871 233.029C311.835 230.672 308.657 227.19 306.335 222.582C304.049 217.975 302.906 212.278 302.906 205.492V153.15H318.925V203.564C318.925 209.171 320.479 213.636 323.586 216.957C326.693 220.279 330.729 221.94 335.694 221.94C338.694 221.94 341.676 221.19 344.64 219.689C347.641 218.189 350.123 215.921 352.087 212.886C354.087 209.85 355.07 205.992 355.034 201.314Z" fill="white"/>
<path d="M228.171 186.581V235.44H212.152V125.721H227.957V166.544H228.975C230.903 162.115 233.85 158.597 237.814 155.99C241.779 153.383 246.958 152.079 253.351 152.079C258.994 152.079 263.923 153.24 268.137 155.561C272.387 157.883 275.673 161.347 277.995 165.955C280.352 170.526 281.531 176.241 281.531 183.098V235.44H265.512V185.027C265.512 178.991 263.959 174.312 260.851 170.991C257.744 167.633 253.422 165.955 247.886 165.955C244.1 165.955 240.707 166.758 237.707 168.365C234.743 169.973 232.403 172.33 230.689 175.437C229.01 178.509 228.171 182.223 228.171 186.581Z" fill="white"/>
<defs>
<filter id="filter0_i_525_321" x="485.594" y="218.439" width="18.8574" height="22.0581" filterUnits="userSpaceOnUse" color-interpolation-filters="sRGB">
<feFlood flood-opacity="0" result="BackgroundImageFix"/>
<feBlend mode="normal" in="SourceGraphic" in2="BackgroundImageFix" result="shape"/>
<feColorMatrix in="SourceAlpha" type="matrix" values="0 0 0 0 0 0 0 0 0 0 0 0 0 0 0 0 0 0 127 0" result="hardAlpha"/>
<feOffset dy="3.2"/>
<feGaussianBlur stdDeviation="1.6"/>
<feComposite in2="hardAlpha" operator="arithmetic" k2="-1" k3="1"/>
<feColorMatrix type="matrix" values="0 0 0 0 0.615686 0 0 0 0 0.521569 0 0 0 0 1 0 0 0 0.2 0"/>
<feBlend mode="normal" in2="shape" result="effect1_innerShadow_525_321"/>
</filter>
</defs>
</svg>
